<?xml version='1.0' encoding='utf-8'?>
<svg xmlns="http://www.w3.org/2000/svg" width="1770px" height="1265px" version="1.1" viewBox="-345 433 1770 1265"> <g> <g fill="#94e7ff"> <path d="m-354.66 393.18c-0.2112 0-0.41395 0.08399-0.56337 0.23316-0.14935 0.14941-0.23321 0.35205-0.23321 0.56347l0.00201 1343c0 0.4397 0.35675 0.7964 0.79669 0.7964l1789.3 0.0021c0.2116 0 0.4141-0.0835 0.5635-0.2332 0.1494-0.1494 0.2331-0.3523 0.2331-0.5637l-3e-4 -1343c0-0.44018-0.3565-0.79687-0.7967-0.79687l-1789.3-0.00116z"/> </g> <g> <path d="m622.16 1252.2 98.884 2e-4 98.884 0.0017q-3e-4 124.9-2e-4 249.79-98.884 4e-4 -197.77 4e-4 -5e-5 -124.9 1.5e-4 -249.8z"/> <path d="m261.58 710.77 921.82 0.00186q4e-4 299.72 5e-4 599.43-460.91 6e-4 -921.82 9e-4 2.4e-4 -299.72 1.8e-4 -599.44z"/> </g> <g fill="#fff"> <path d="m284.98 737.82 875.03 0.00196q1e-4 271.04-2e-4 542.07-437.52-4e-4 -875.03 0 4.2e-4 -271.04 3.9e-4 -542.07z"/> </g> <g> <path d="m480.07 1474.6 481.95 0.0021q0 19.173 1e-4 38.346-240.98 0.0013-481.95 0.0022-1e-4 -19.175-1e-4 -38.35z"/> </g> <g fill="#fff"> <path d="m873.64 569.15v3.4e-4 4.9e-4 -4.9e-4 -3.4e-4 3.4e-4 4.9e-4q0-4.9e-4 0-8.3e-4z"/> </g> <g fill="#e6e6e6"> <path d="m352.63 1064 175.34 0.0011v25.077l-175.34 0.0014v-25.079zm0 0 175.34 0.0011v25.077l-175.34 0.0014v-25.079zm0 0 175.34 0.0011v25.077l-175.34 0.0014v-25.079zm0 0 175.34 0.0011v25.077l-175.34 0.0014v-25.079z"/> <path d="m352.63 1113.9 133.68 0.0015v25.077l-133.68 8e-4v-25.08zm0 0 133.68 0.0015v25.077l-133.68 8e-4v-25.08zm0 0 133.68 0.0015v25.077l-133.68 8e-4v-25.08zm0 0 133.68 0.0015v25.077l-133.68 8e-4v-25.08z"/> <path d="m352.63 1155.8 175.34 0.0011v25.077l-175.34 8e-4v-25.079zm0 0 175.34 0.0011v25.077l-175.34 8e-4v-25.079zm0 0 175.34 0.0011v25.077l-175.34 8e-4v-25.079zm0 0 175.34 0.0011v25.077l-175.34 8e-4v-25.079z"/> <path d="m352.63 1206 175.34 0.0012v16.788l-175.34 8e-4 -6e-5 -16.79zm0 0 175.34 0.0012v16.788l-175.34 8e-4 -6e-5 -16.79zm0 0 175.34 0.0012v16.788l-175.34 8e-4 -6e-5 -16.79zm0 0 175.34 0.0012v16.788l-175.34 8e-4 -6e-5 -16.79z"/> <path d="m552.83 1113.9 133.68 0.0018 1.4e-4 25.077-133.68 0.0016-1e-4 -25.08zm0 0 133.68 0.0018 1.4e-4 25.077-133.68 0.0016-1e-4 -25.08zm0 0 133.68 0.0018 1.4e-4 25.077-133.68 0.0016-1e-4 -25.08zm0 0 133.68 0.0018 1.4e-4 25.077-133.68 0.0016-1e-4 -25.08z"/> <path d="m552.83 1155.8 175.34 8e-4v25.077l-175.34 0.0011v-25.079zm0 0 175.34 8e-4v25.077l-175.34 0.0011v-25.079zm0 0 175.34 8e-4v25.077l-175.34 0.0011v-25.079zm0 0 175.34 8e-4v25.077l-175.34 0.0011v-25.079z"/> <path d="m552.83 1206 175.34 8e-4v16.788l-175.34 1e-3v-16.79zm0 0 175.34 8e-4v16.788l-175.34 1e-3v-16.79zm0 0 175.34 8e-4v16.788l-175.34 1e-3v-16.79zm0 0 175.34 8e-4v16.788l-175.34 1e-3v-16.79z"/> </g> <g fill="#fff"> <path d="m1045.8 872.24c-6.9237 0-14.571-5.6651-14.571-12.588l3e-4 -119.58 127.86 132.17-113.29 0.0014z"/> </g> <g fill="#e6e6e6"> <path d="m823.46 1004.4 276.93 7.6e-4v12.588l-276.93-2.7e-4v-12.588zm0 0 276.93 7.6e-4v12.588l-276.93-2.7e-4v-12.588zm0 0 276.93 7.6e-4v12.588l-276.93-2.7e-4v-12.588zm0 0 276.93 7.6e-4v12.588l-276.93-2.7e-4v-12.588z"/> </g> <g fill="#b3b3b3"> <path d="m823.46 1029.6 226.58 0.0011v6.2923l-226.58 8e-4v-6.2942zm0 0 226.58 0.0011v6.2923l-226.58 8e-4v-6.2942zm0 0 226.58 0.0011v6.2923l-226.58 8e-4v-6.2942zm0 0 226.58 0.0011v6.2923l-226.58 8e-4v-6.2942z"/> <path d="m892.69 1168.1 201.4 0.0012v6.2923l-201.4 0.0012v-6.2947zm0 0 201.4 0.0012v6.2923l-201.4 0.0012v-6.2947zm0 0 201.4 0.0012v6.2923l-201.4 0.0012v-6.2947zm0 0 201.4 0.0012v6.2923l-201.4 0.0012v-6.2947z"/> <path d="m892.69 1186.9 201.4 0.0012v6.2927l-201.4 3e-4v-6.2942zm0 0 201.4 0.0012v6.2927l-201.4 3e-4v-6.2942zm0 0 201.4 0.0012v6.2927l-201.4 3e-4v-6.2942zm0 0 201.4 0.0012v6.2927l-201.4 3e-4v-6.2942z"/> <path d="m892.69 1224.7 201.4 0.0011v6.2927l-201.4 0.0013v-6.2951zm0 0 201.4 0.0011v6.2927l-201.4 0.0013v-6.2951zm0 0 201.4 0.0011v6.2927l-201.4 0.0013v-6.2951zm0 0 201.4 0.0011v6.2927l-201.4 0.0013v-6.2951z"/> <path d="m892.69 1243.6 201.4 0.0015v6.2928l-201.4 8e-4v-6.2951zm0 0 201.4 0.0015v6.2928l-201.4 8e-4v-6.2951zm0 0 201.4 0.0015v6.2928l-201.4 8e-4v-6.2951zm0 0 201.4 0.0015v6.2928l-201.4 8e-4v-6.2951z"/> <path d="m823.46 1048.5 264.34 0.0017v6.2933l-264.34 2e-4v-6.2952zm0 0 264.34 0.0017v6.2933l-264.34 2e-4v-6.2952zm0 0 264.34 0.0017v6.2933l-264.34 2e-4v-6.2952zm0 0 264.34 0.0017v6.2933l-264.34 2e-4v-6.2952z"/> <path d="m823.46 1067.3 151.05 6e-4v6.2937l-151.05 4e-4v-6.2947zm0 0 151.05 6e-4v6.2937l-151.05 4e-4v-6.2947zm0 0 151.05 6e-4v6.2937l-151.05 4e-4v-6.2947zm0 0 151.05 6e-4v6.2937l-151.05 4e-4v-6.2947z"/> </g> <g fill="#929fa8"> <path d="m788.17 773.17 323.22 0.00155q0 86.312-2e-4 172.62-161.61 3.6e-4 -323.22 0.00126-5e-5 -86.314-5e-5 -172.63"/> </g> <g fill="#fff"> <path d="m598.61 842.95-0.6637 6.7171q-0.0536 2.5127-3.9204 12.546-1.7569 3.866-4.1133 7.3108-4.7134 6.8894-11.826 12.093-7.1604 5.1971-15.335 7.4977-4.0869 1.1508-8.4276 1.5769-2.012 0.66556-13.592-0.35144-8.9962-1.7139-16.307-5.8265-2.091-0.65407-10.018-7.5198-3.0232-2.9564-5.6249-6.5125-11.577-17.176-8.959-35.225 1.1836-8.9903 4.9834-16.499 1.8998-3.7542 4.4536-7.1383 0.9088-1.9618 9.052-9.2407 13.489-10.701 32.242-10.587 4.6806 0.26515 8.9907 1.1838 2.3866 0.05041 12.097 4.2276 7.5086 3.7994 13.535 10.215 6.0266 6.4156 9.3494 14.147 1.2534 1.7276 3.4638 12.338 0.64736 4.3592 0.61916 9.0471"/> <path d="m429.94 841.93-0.66376 6.7162q-4.1022 20.636-19.859 31.95-15.65 11.585-37.354 8.724-10.189-2.078-17.525-6.4245l-2.9069-2.0465-5.8931-4.8756q-2.0155-1.9712-3.8436-4.2086-1.4733-1.5425-4.1788-6.1318l-2.0467-3.849q-1.8716-3.8599-3.0422-7.7628-2.3413-7.8062-1.8792-15.785 1.3387-20.672 15.633-33.906 14.832-13.916 35.504-13.559 4.9661 0.2869 10.413 1.4098 1.6422 0.2062 10.674 4.001 5.9956 2.6808 13.535 10.215 6.7465 7.393 9.9538 15.354 3.9792 12.173 3.4785 20.178"/> <path d="m766.7 841.74-0.66369 6.7169q-3.8563 20.242-19.859 31.95-16.111 11.694-37.355 8.7235-20.242-3.8558-31.95-19.859-3.7496-5.172-6.0931-11.206l-1.9347-6.1886q-1.5551-6.3727-1.3594-13.243 1.1917-21.063 15.627-34.623 14.436-13.559 35.533-13.431 21.063 1.1913 34.623 15.626 13.56 14.436 13.432 35.533"/> </g> <g fill="#17bf35"> <path d="m698.03 851.8-0.09484 0.0017q-3.1566 0.48755-2.7765 3.7255 2.0686 5.0199 5.417 8.0886 7.051 6.662 17.552 6.8539l2.4717-0.11707q2.4494-0.2356 4.7535-0.9087 4.6359-1.3649 8.3538-4.2685 3.7174-2.9036 6.0694-7.0589 1.475-2.8171 1.2716-2.9002 0.2704-1.0572-0.79526-2.4658-1.9043-1.6854-3.9918-0.2772-0.5317 0.48194-0.59264 0.62965-0.61106 1.7464-3.1239 5.0206-2.3413 2.6838-5.5593 4.3166-1.5984 0.8097-3.3526 1.3167l-1.7825 0.4244q-1.8154 0.3456-3.723 0.3478-5.9398-0.06007-10.567-2.9657-1.5139-0.95044-2.7962-2.1635l-1.2137-1.2719-1.0765-1.3898q-0.94226-1.3103-1.8302-3.3823-0.04541-0.1593-0.53211-0.7068-0.87365-0.8318-2.0808-0.849"/> <path d="m717.65 787.55-3.3613 0.10706q-10.173 0.64-19.544 5.12-10.616 5.8147-14.241 10.135-15.365 16.166-15.364 37.15 8.6e-4 20.984 15.366 37.153 16.162 15.362 37.144 15.362 20.984-1.4e-4 37.151-15.365 15.363-16.166 15.363-37.148-1.5e-4 -20.983-15.361-37.146-16.169-15.367-37.154-15.367zm2e-3 8.1005 2.8431 0.0901q12.813 1.4885 19.11 5.6848 7.7754 4.4053 13.438 11.764 10.827 14.917 8.6606 32.551-0.72205 5.6767-2.8877 11.052l-2.5267 5.2239q-1.7767 4.0731-9.4385 11.542-14.324 11.911-32.043 10.829-8.6043-0.5415-16.529-4.331-8.9786-4.9168-12.045-8.571-12.996-13.674-12.994-31.422 6e-4 -17.748 12.995-31.42 13.672-12.992 31.418-12.992"/> <path d="m743.53 825.28-0.07765 1.1514q-0.55064 3.4797-3.2226 5.5662-2.6911 2.0843-6.3371 1.6905-3.4796-0.55056-5.5659-3.2227-0.6682-0.86374-1.1012-1.8822l-0.36376-1.0471q-0.29954-1.0808-0.30324-2.2558 0.0912-3.6061 2.4856-6.0004 2.3943-2.3943 6-2.4855 3.6062 0.0912 6.0004 2.4856 2.394 2.3946 2.4854 6.0001"/> <path d="m709.2 824.69-0.07725 1.1514q-0.2449 1.5466-0.9086 2.8177-0.3319 0.6359-0.76867 1.2025-0.15283 0.32676-1.5456 1.546-0.2694 0.3081-1.9 1.1143-0.66875 0.2795-1.3846 0.4366-1.4319 0.3147-3.0523 0.13955-1.5464-0.24475-2.8178-0.90882-0.63575-0.33183-1.2022-0.76823-1.357-1.1835-1.5458-1.5459-2.0702-2.8727-1.7195-5.9714 0.1541-1.5424 0.76333-2.846 0.30432-0.6516 0.72317-1.2439 0.14475-0.33996 1.4972-1.6277 2.2482-1.9007 5.4532-1.9817 0.8013 0.02017 1.543 0.15442 1.8013 0.43445 2.0896 0.65785 1.3034 0.6089 2.3678 1.6734 0.53223 0.53185 0.95006 1.1233 0.94655 1.5322 0.9993 1.9107 0.49534 1.3632 0.53575 2.9658"/> </g> <g fill="#fcb826"> <path d="m548.98 787.54-3.3614 0.10704q-10.173 0.63976-19.543 5.1206-10.616 5.8141-14.241 10.134-15.365 16.166-15.364 37.15 9.8e-4 20.984 15.366 37.153 16.162 15.361 37.144 15.361 20.984 2.5e-4 37.151-15.365 15.363-16.166 15.363-37.149-1e-4 -20.982-15.361-37.146-16.169-15.367-37.153-15.367zm0.00232 8.1004 2.8429 0.09008q12.813 1.4887 19.11 5.6848 7.7754 4.4054 13.438 11.764 10.827 14.917 8.6607 32.551-0.72195 5.6765-2.8874 11.051l-2.527 5.2239q-1.7768 4.0732-9.4385 11.542-14.323 11.911-32.042 10.829-8.6042-0.5415-16.529-4.3308-8.9787-4.917-12.045-8.5708-12.995-13.674-12.994-31.422 8.6e-4 -17.748 12.994-31.42 13.672-12.992 31.418-12.992"/> <path d="m574.86 825.28-0.07724 1.1512q-0.55076 3.4798-3.2228 5.5659-2.6909 2.0847-6.3367 1.6907-3.48-0.5505-5.5663-3.2225-0.6684-0.8638-1.1009-1.8822l-0.36404-1.0471q-0.29956-1.0811-0.3031-2.256 0.09119-3.606 2.4853-6.0003 2.3943-2.3942 6.0003-2.4856 3.6058 0.09143 6.0005 2.4856 2.3941 2.3941 2.485 6.0003"/> <path d="m540.53 824.69-0.0774 1.1515q-0.2446 1.5466-0.90855 2.8178-0.33205 0.63584-0.76865 1.2023-0.1526 0.32657-1.5454 1.546-0.26966 0.30825-1.9002 1.1142-0.6687 0.2798-1.3846 0.4369-1.4314 0.3142-3.0523 0.1398-1.5465-0.24466-2.8176-0.9091-0.63574-0.3318-1.2026-0.7682-1.3567-1.1834-1.5457-1.546-2.0699-2.8733-1.7191-5.9718 0.1539-1.5426 0.7632-2.846 0.3044-0.65112 0.723-1.2438 0.1448-0.3396 1.4974-1.6271 2.2479-1.901 5.4531-1.9817 0.80127 0.0199 1.5426 0.1542 1.8014 0.4341 2.0898 0.6576 1.3035 0.6091 2.3677 1.6731 0.53197 0.53245 0.9502 1.124 0.9464 1.5321 0.999 1.9104 0.4955 1.3633 0.536 2.9658"/> <path d="m528.58 860v7e-4l40.481-7e-4c1.3878 0 2.5122 1.1245 2.5126 2.5124 0 1.3877-1.1247 2.5126-2.5124 2.5126v7.4e-4l-40.481-7.4e-4c-1.3876 0-2.5124-1.1249-2.5124-2.5126-2.5e-4 -1.3879 1.1248-2.5124 2.5122-2.5124z"/> </g> <g fill="#ff0d00"> <path d="m360.69 870.08-0.0949-0.00144q-3.1568-0.48806-2.7767-3.7259 2.069-5.02 5.4168-8.088 7.0513-6.6627 17.552-6.8542l2.4716 0.11733q2.4495 0.2352 4.7532 0.9089 4.6359 1.3646 8.3538 4.2675 3.7178 2.9033 6.0696 7.0593 1.4751 2.817 1.2716 2.9001 0.27033 1.0565-0.79559 2.4658-1.9043 1.6852-3.9914 0.2771-0.53199-0.48196-0.59277-0.62926-0.61097-1.7466-3.1235-5.0209-2.3414-2.6841-5.5601-4.3165-1.5985-0.8096-3.3524-1.3167l-1.7822-0.42454q-1.8157-0.34536-3.723-0.3477-5.9399 0.0601-10.567 2.9661-1.514 0.95006-2.7961 2.1633l-1.2137 1.2716-1.0764 1.3899q-0.94245 1.3104-1.8304 3.3822-0.04528 0.1597-0.53203 0.70753-0.87367 0.83067-2.0807 0.84837"/> <path d="m380.3 787.54-3.3614 0.10706q-10.173 0.64025-19.543 5.1214-10.616 5.8138-14.241 10.134-15.365 16.165-15.364 37.149 8.5e-4 20.985 15.366 37.153 16.162 15.361 37.144 15.361 20.984 6e-4 37.151-15.365 15.363-16.166 15.362-37.149-1.3e-4 -20.982-15.361-37.145-16.169-15.367-37.153-15.367zm0.00238 8.1005 2.8432 0.09046q12.813 1.4885 19.109 5.6844 7.7752 4.4053 13.438 11.764 10.827 14.917 8.6607 32.552-0.72211 5.6765-2.8878 11.051l-2.5264 5.2239q-1.777 4.0733-9.4386 11.542-14.323 11.911-32.042 10.828-8.6042-0.54185-16.529-4.3307-8.9785-4.9171-12.045-8.5713-12.995-13.674-12.994-31.422 7.3e-4 -17.748 12.994-31.419 13.672-12.992 31.418-12.993"/> <path d="m406.18 825.28-0.07745 1.1516q-0.55073 3.4797-3.2227 5.5662-2.6907 2.0845-6.3368 1.6904-3.4797-0.55067-5.566-3.2227-0.66846-0.86377-1.1013-1.8822l-0.36371-1.0475q-0.29956-1.081-0.3031-2.2558 0.09113-3.6058 2.4854-5.9999 2.3942-2.3945 6.0001-2.4852 3.6057 0.0907 6.0001 2.4851 2.3944 2.3945 2.4853 5.9999"/> <path d="m371.86 824.69-0.07745 1.1515q-0.24494 1.5469-0.90858 2.8178-0.33184 0.63584-0.7685 1.2025-0.153 0.3265-1.5459 1.5458-0.26933 0.30799-1.8998 1.1145-0.6687 0.2793-1.3846 0.43665-1.4316 0.3142-3.0523 0.1394-1.5466-0.2446-2.8177-0.9087-0.63569-0.3318-1.2026-0.76805-1.3568-1.1838-1.5457-1.5462-2.0702-2.8733-1.7194-5.9716 0.15424-1.5428 0.7633-2.8464 0.30458-0.65136 0.72303-1.2435 0.14467-0.3395 1.4974-1.6271 2.2478-1.9006 5.4528-1.9822 0.8015 0.0204 1.543 0.1547 1.8011 0.4341 2.0897 0.6578 1.3035 0.6089 2.3677 1.6729 0.53222 0.53245 0.95044 1.1242 0.94634 1.5318 0.9992 1.9102 0.4953 1.3632 0.53583 2.9657"/> </g> <g fill-opacity=".40392"> <path d="m1259.7 1512.4-6.3778 1.4077q0.3533 0.5251-49.634 2.6462-23.014 0.8193-54.654 1.554-63.279 1.4707-161.06 2.6045-98.46 1.1313-212.46 1.6651-57.001 0.2672-117.89 0.3849-28.016 0.1516-191.41 0.0154-127.35-0.2996-232.03-1.111l-50.925-0.437q-49.509-0.4704-93.352-1.0686-43.843-0.5984-82.02-1.324-170.47-3.5116-141.59-7.2994 12.697-1.8862 62.86-3.4797 25.082-0.7963 59.53-1.5204 11.925-0.4155 123.31-1.9895 185.11-2.3225 449.03-2.4208 36.068-0.0749 186.85 0.3868 58.588 0.2339 112.25 0.6055 107.32 0.745 194.94 2.0451 101.33 1.6909 110.35 2.1167 29.76 0.7607 50.156 1.5932 40.791 1.667 44.12 3.6253"/> </g> <g fill="#ffb591"> <path d="m374.87 965.55q-0.8924-0.0332-2.1809 1.3008-0.40094 0.16014-5.1005 6.7734-1.0616 1.3626-2.1357 2.5242-1.0579 1.1506-2.3702 2.3899-6.9648 6.0544-7.2229 6.6511-2.2148 2.5154-2.9338 5.4717-0.89302 3.445-0.63482 9.217l10.866 11.574q17.657-8.3371 21.377-11.296 1.0354-0.77635 1.9131-1.6274 4.3615-4.7998 6.7866-6.7917l14.414-11.641 3.1717-2.7q2.9717-2.6678 3.2781-4.053 0.58771-4.6843-4.7243-3.3049-1.8452 0.40696-5.4641 1.7551-17.931 7.1885-19.398 7.5132-5.6534 1.955-13.864 3.9704 5.8426-7.1648 6.5294-10.671 0.58165-2.5044-0.06276-4.6426-0.77118-2.2859-2.1539-2.4114z"/> </g> <g fill="#fff"> <path d="m349.12 996.29-13.7 11.951 16.785 21.551q7.2226-5.1411 9.7267-8.3155 2.8254-3.4206 2.5295-6.7097-0.29413-3.2344-3.8192-7.4665-2.9545-3.6753-11.519-11.009z"/> </g> <g> <path d="m180.67 1476.9-1.8319 28.428q9.3512 2.6191 14.491 3.3843 2.4166 0.5642 11.419 0.5183 1.5339 0.0918 2.951 0.4329 1.46 0.3625 2.9088 1.0691l7.8133 4.2607q2.3167 1.1699 4.6969 2.0205 5.5065 1.9392 12.001 2.4358 11.694 0.8157 17.66-4.1985 6.5115-6.2082 0.32904-11.051-1.8024-1.4245-4.8985-2.8818-1.8577-0.9912-11.386-4.3941-1.9311-0.8217-3.3516-1.9377-3.265-2.1941-11.962-15.2l-40.804-2.8814z"/> <path d="m89.995 1484.8q-0.30719 5.156-1.949 8.8792-0.82494 1.946-2.0167 3.9529l-5.7401 9.0337q-1.3648 2.2231-2.2775 4.0595-2.0766 4.1204-1.9086 7.1282 0.83643 9.2021 15.8 10.336 12.876 0.4228 18.757-3.4187 1.9578-1.3223 2.6424-3.5797 0.26209-0.8234 0.37897-2.0141 0.11298-0.5937 0.02838-4.2671 0.02832-0.6743 0.25037-0.9712 0.31988-0.3652 0.84112-0.2876l3.1395 0.7134q1.0026 0.1724 1.8569 0.1304 1.676-0.0923 2.744-0.9905 2.498-2.0469 2.1129-8.5852-0.28125-6.3435-2.6928-18.1l-31.966-2.0186z"/> <path d="m162 874.12q-18.055-0.32704-24.323 12.353-3.719 7.0334-4.7626 18.222-1.2672 12.588 0.77426 22.872l55.938-0.8665q1.6772-1.7723 3.0455-4.2564 3.3442-6.2376 2.9961-18.21-0.49719-9.7461-4.767-16.547-7.9152-12.238-28.815-13.564z"/> </g> <g fill="#fff"> <path d="m133.74 957.97-8.2716 9.8892-0.43025 198.79q60.728 14.63 81.6 7.8502 23.674-5.9296 24.351-37.069 2.3218-30.579-22.377-121.14l-28.727-51.684-0.62397-1.6897-2.6764-0.44994-6.8326 22.483-7.0934 1.7163-1.0021 7.0042-0.17835 0.0295-14.164-6.3806-13.51-29.205z"/> </g> <g> <path d="m224.81 1145q-28.258 9.0139-49.355 10.415-25.639 1.9944-72.809-1.716l-0.69165 1.0198q-2.2542 4.6228-5.5981 70.101-3.167 59.883-11.568 261.2l39.599 1.9649q6.8109-115.18 14.535-155.31 7.1314-43.113 28.905-87.389 14.954 79.077 16.297 119.84 2.3069 40.394-5.658 119.72l45.239-2.7522 8.9929-258.93-7.8408-77.699z"/> <path d="m85.322 1080-2.6049 35.848-5.0537-8.4585 7.5646-27.051m42.258-115.44q-22.327 13.727-58.362 28.078-5.614 20.941-9.5124 34.364l-13.459 44.52-4.4058 15.7q-4.5161 16.884-3.2587 23.968 0.50647 3.9292 3.0661 8.7793 9.1496 15.32 32.33 58.556l4.3302-1.3234-2.043 28.934 23.405 10.594q27.662-46.218 33.134-96.92 5.8223-44.618-5.2192-155.22z"/> <path d="m179.42 964.23 49.396 232.34q9.8724 4.2337 17.248 8.8426l5.311-11.053-8.5432-133.87 34.184 20.439q3.1665 0.4277 5.845-0.2383 6.2078 1.475 74.666-46.37l-20.884-29.056q-24.819 19.693-54.67 30.861-27.61-18.256-36.304-27.798-9.2078-9.3074-15.005-26.676l-44.184-10.49-7.0323-6.9087z"/> </g> <g fill="#ffb591"> <path d="m159.24 885.68q-6.9081-1.1709-12.827 8.0749-4.5434 6.9429-7.2111 24.375-0.64618-4.6581-1.9196-6.3185-1.2198-1.7904-4.833-3.5154-4.958 5.6946-4.4953 11.509 0.34234 6.1714 2.3425 9.7594 1.2188 2.41 4.7536 2.2511l-1.164 28.797 11.462 28.008 16.436 7.0796 7.5847-10.531 8.1113-17.164-0.88854-7.398q6.584-9.1044 8.1918-14.347 0.37817-0.46289 3.0851-12.45 4.4693-10.639 4.9396-13.552 1.8086-7.5754 1.6957-13.098-0.15229-5.9518-2.6827-7.3251-0.95941-0.6135-2.7188-0.8811-7.202-0.4807-7.9846-0.7529-1.9174-0.3616-3.5264-1.0591-1.7452-0.735-4.1398-2.3786l-9.5805-7.0763q-2.5005-1.585-4.6169-2.0044z"/> </g> <g fill="#fa5422" fill-opacity=".20784"> <path d="m134.85 946.71 24.12 47.955 16.447-33.242q-4.9954 4.7407-10.288 6.0403-6.7058 1.7407-12.367-0.34204-4.2391-1.5237-8.38-6.3447-3.5856-4.0905-9.4764-13.972z"/> </g> <g fill="#fff"> <path d="m99.328 1161.7-20.076 15.213q2.5975 4.7049 4.4372 6.5552 3.6368 3.855 8.2955 0.9378 4.4175-2.3606 15.128-14.703l-7.7789-7.9985z"/> </g> <g fill="#ffb591"> <path d="m118.43 1169.3q-9.7548-0.2251-11.868 0.2205l-15.993 16.127 14.119 22.767q6.986-12.585 13.098-27.015l2.8507-3.7776q10.387 1.1834 13.117-3.8855 0.73627-2.0691-2.7737-3.1145-3.7608-1.0722-12.468-1.3198z"/> </g> <g fill-opacity=".41176"> <path d="m137.39 983.43-6.0964 4.5491 16.567 3.6649-10.47-8.214-8.6e-4 0.0088zm42.427-4.1263-12.296 12.583 16.662-8.5486-4.3569-4.0266-0.00953-0.0083zm-19.726 17.442 15.339 158.53q-1.0416-23.854-6.3548-78.792-4.1873-43.839-8.9745-79.673l-0.00921-0.06593z"/> </g> </g> </svg>