<?xml version='1.0' encoding='utf-8'?>
<svg xmlns="http://www.w3.org/2000/svg" version="1.1" width="240" height="200" viewBox="0 0 240 200"> <defs> </defs> <g transform="matrix(1 0 0 1 120.5 49)"> <g style=""> <g transform="matrix(1 0 0 1 0 0)" id="gbox"> <rect style="stroke: rgb(237,241,248); stroke-width: 3; stroke-dasharray: none; stroke-linecap: butt; stroke-dashoffset: 0; stroke-linejoin: miter; stroke-miterlimit: 4; fill: rgb(12,22,37); fill-rule: nonzero; opacity: 1;" x="-108" y="-36" rx="10" ry="10" width="216" height="72"/> </g> <g transform="matrix(0.07 0 0 0.07 83.5 0)" id="Layer_1"> <path style="stroke: none; stroke-width: 1; stroke-dasharray: none; stroke-linecap: butt; stroke-dashoffset: 0; stroke-linejoin: miter; stroke-miterlimit: 4; fill: rgb(246,246,240); fill-rule: nonzero; opacity: 1;" transform=" translate(-256, -256)" d="M 426.731 0 H 85.269 C 38.251 0 0 38.251 0 85.269 v 341.461 C 0 473.749 38.251 512 85.269 512 h 341.461 C 473.749 512 512 473.749 512 426.731 V 85.269 C 512 38.251 473.749 0 426.731 0 z M 186.197 305.365 c 8.064 8.576 7.68 22.08 -0.896 30.165 c -4.139 3.883 -9.387 5.803 -14.635 5.803 c -5.675 0 -11.328 -2.24 -15.531 -6.699 l -59.413 -63.104 c -2.091 -1.963 -3.797 -4.352 -4.992 -7.083 c -3.371 -7.829 -1.835 -16.896 3.989 -23.104 l 60.416 -64 c 8.107 -8.555 21.589 -8.96 30.165 -0.853 c 8.576 8.085 8.96 21.589 0.896 30.144 l -46.549 49.301 L 186.197 305.365 z M 297.557 198.741 l -42.667 128 c -2.965 8.939 -11.285 14.592 -20.224 14.592 c -2.24 0 -4.501 -0.341 -6.741 -1.088 c -11.179 -3.733 -17.216 -15.829 -13.483 -26.987 l 42.667 -128 c 3.733 -11.179 15.701 -17.28 26.965 -13.504 C 295.253 175.488 301.291 187.563 297.557 198.741 z M 420.416 271.083 l -64 64 c -4.16 4.16 -9.621 6.251 -15.083 6.251 c -5.461 0 -10.923 -2.091 -15.083 -6.251 c -8.341 -8.341 -8.341 -21.824 0 -30.165 L 375.168 256 l -48.917 -48.917 c -8.341 -8.341 -8.341 -21.824 0 -30.165 s 21.824 -8.341 30.165 0 l 64 64 C 428.757 249.259 428.757 262.741 420.416 271.083 z" stroke-linecap="round"/> </g> </g> </g> <g transform="matrix(1 0 0 1 120.5 152)"> <g style=""> <g transform="matrix(-1 0 0 1 0 0)"> <rect style="stroke: rgb(237,241,248); stroke-width: 3; stroke-dasharray: none; stroke-linecap: butt; stroke-dashoffset: 0; stroke-linejoin: miter; stroke-miterlimit: 4; fill: rgb(12,22,37); fill-rule: nonzero; opacity: 1;" x="-108" y="-36" rx="10" ry="10" width="216" height="72"/> </g> <g transform="matrix(0.07 0 0 0.07 -83.45 -0.04)"> <path style="stroke: none; stroke-width: 1; stroke-dasharray: none; stroke-linecap: butt; stroke-dashoffset: 0; stroke-linejoin: miter; stroke-miterlimit: 4; fill: rgb(246,246,240); fill-rule: nonzero; opacity: 1;" transform=" translate(-256, -256)" d="M 426.731 0 H 85.269 C 38.251 0 0 38.251 0 85.269 v 341.461 C 0 473.749 38.251 512 85.269 512 h 341.461 C 473.749 512 512 473.749 512 426.731 V 85.269 C 512 38.251 473.749 0 426.731 0 z M 186.197 305.365 c 8.064 8.576 7.68 22.08 -0.896 30.165 c -4.139 3.883 -9.387 5.803 -14.635 5.803 c -5.675 0 -11.328 -2.24 -15.531 -6.699 l -59.413 -63.104 c -2.091 -1.963 -3.797 -4.352 -4.992 -7.083 c -3.371 -7.829 -1.835 -16.896 3.989 -23.104 l 60.416 -64 c 8.107 -8.555 21.589 -8.96 30.165 -0.853 c 8.576 8.085 8.96 21.589 0.896 30.144 l -46.549 49.301 L 186.197 305.365 z M 297.557 198.741 l -42.667 128 c -2.965 8.939 -11.285 14.592 -20.224 14.592 c -2.24 0 -4.501 -0.341 -6.741 -1.088 c -11.179 -3.733 -17.216 -15.829 -13.483 -26.987 l 42.667 -128 c 3.733 -11.179 15.701 -17.28 26.965 -13.504 C 295.253 175.488 301.291 187.563 297.557 198.741 z M 420.416 271.083 l -64 64 c -4.16 4.16 -9.621 6.251 -15.083 6.251 c -5.461 0 -10.923 -2.091 -15.083 -6.251 c -8.341 -8.341 -8.341 -21.824 0 -30.165 L 375.168 256 l -48.917 -48.917 c -8.341 -8.341 -8.341 -21.824 0 -30.165 s 21.824 -8.341 30.165 0 l 64 64 C 428.757 249.259 428.757 262.741 420.416 271.083 z" stroke-linecap="round"/> </g> </g> </g> </svg>